<?xml version="1.0" encoding="UTF-8"?><svg id="Layer_2" xmlns="http://www.w3.org/2000/svg" viewBox="0 0 116.42 113.58"><defs><style>.cls-1{fill:#1d1d1b;}</style></defs><g id="Layer_1-2"><path class="cls-1" d="m20.59,112.08H0V0h20.59v112.08Z"/><path class="cls-1" d="m116.42,71.28c0,6.29-1.07,12.03-3.22,17.22-2.15,5.19-5.07,9.65-8.76,13.36-3.69,3.72-8.02,6.6-12.99,8.65-4.97,2.05-10.29,3.07-15.98,3.07s-10.94-1.05-15.91-3.14c-4.97-2.1-9.31-5.02-13.03-8.76-3.72-3.74-6.65-8.2-8.8-13.36-2.15-5.17-3.22-10.84-3.22-17.03V0h20.51v37.43c1.1-1.4,2.43-2.65,4.01-3.74,1.57-1.1,3.27-2,5.09-2.7,1.82-.7,3.71-1.24,5.65-1.61s3.84-.56,5.69-.56c5.69,0,11.02,1.06,15.98,3.18,4.97,2.12,9.3,5.08,12.99,8.87,3.69,3.79,6.61,8.27,8.76,13.44,2.15,5.17,3.22,10.82,3.22,16.96Zm-20.59,0c0-3.09-.54-5.98-1.61-8.65-1.07-2.67-2.53-4.98-4.38-6.93-1.85-1.95-4.01-3.47-6.48-4.57-2.47-1.1-5.1-1.65-7.9-1.65s-5.43.61-7.9,1.83c-2.47,1.22-4.63,2.84-6.48,4.87-1.85,2.02-3.29,4.34-4.34,6.96s-1.57,5.33-1.57,8.12c0,3.1.52,5.96,1.57,8.61,1.05,2.65,2.5,4.94,4.34,6.89,1.85,1.95,4.01,3.48,6.48,4.6s5.1,1.68,7.9,1.68,5.43-.56,7.9-1.68,4.63-2.66,6.48-4.6c1.85-1.95,3.31-4.24,4.38-6.89,1.07-2.65,1.61-5.51,1.61-8.61Z"/></g></svg>
